<svg preserveAspectRatio="xMidYMid meet" viewBox="0 0 205 205" fill="none" xmlns="http://www.w3.org/2000/svg">
<g id="Investing-bro 1">
<g id="freepik--background-simple--inject-31">
<path id="Vector" d="M30.9973 183.726C30.9973 183.726 -15.375 137.708 37.9448 103.798C91.2647 69.8867 69.3348 70.6523 72.9674 49.1663C76.6 27.6804 119.979 12.7917 135.58 43.0292C151.182 73.2668 136.216 88.8111 165.484 106.966C194.752 125.121 201.496 163.67 181.273 183.722L30.9973 183.726Z" fill="#D4E6FC"/>
<path id="Vector_2" opacity="0.7" d="M30.9973 183.726C30.9973 183.726 -15.375 137.708 37.9448 103.798C91.2647 69.8867 69.3348 70.6523 72.9674 49.1663C76.6 27.6804 119.979 12.7917 135.58 43.0292C151.182 73.2668 136.216 88.8111 165.484 106.966C194.752 125.121 201.496 163.67 181.273 183.722L30.9973 183.726Z" fill="white"/>
</g>
<g id="freepik--Bubble--inject-31">
<path id="Vector_3" d="M109.933 59.9215H91.6068V45.2039" stroke="#263238" stroke-width="0.449492" stroke-linecap="round" stroke-linejoin="round"/>
<path id="Vector_4" d="M94.8897 57.2459H93.4231V59.9224H94.8897V57.2459Z" stroke="#263238" stroke-width="0.449492" stroke-linecap="round" stroke-linejoin="round"/>
<path id="Vector_5" d="M97.9353 56.3989H96.4692V59.9215H97.9353V56.3989Z" stroke="#263238" stroke-width="0.449492" stroke-linecap="round" stroke-linejoin="round"/>
<path id="Vector_6" d="M100.981 54.9858H99.5153V59.9215H100.981V54.9858Z" stroke="#263238" stroke-width="0.449492" stroke-linecap="round" stroke-linejoin="round"/>
<path id="Vector_7" d="M104.032 53.5726H102.566V59.9215H104.032V53.5726Z" stroke="#263238" stroke-width="0.449492" stroke-linecap="round" stroke-linejoin="round"/>
<path id="Vector_8" d="M107.078 51.5772H105.612V59.9216H107.078V51.5772Z" stroke="#263238" stroke-width="0.449492" stroke-linecap="round" stroke-linejoin="round"/>
<path id="Vector_9" d="M91.6068 57.3396C91.6068 57.3396 103.356 54.8351 108.976 47.3908" stroke="#263238" stroke-width="0.449492" stroke-linecap="round" stroke-linejoin="round"/>
<path id="Vector_10" d="M108.238 47.1587L109.379 46.8451V48.0998" stroke="#263238" stroke-width="0.449492" stroke-linecap="round" stroke-linejoin="round"/>
<path id="Vector_11" d="M105.62 37.8982C105.099 37.7922 104.573 37.7026 104.04 37.6334" stroke="#263238" stroke-width="0.449492" stroke-linecap="round" stroke-linejoin="round"/>
<path id="Vector_12" d="M110.271 68.1437C114.628 70.3835 120.655 70.5586 120.655 70.5586C117.621 68.4776 115.536 65.4233 114.481 63.607C117.703 60.8296 119.69 57.0545 119.69 52.8885C119.69 46.4541 114.962 40.9401 108.238 38.6351" stroke="#263238" stroke-width="0.449492" stroke-linecap="round" stroke-linejoin="round"/>
<path id="Vector_13" d="M101.14 68.331C103.662 68.336 106.166 67.9033 108.54 67.0523" stroke="#263238" stroke-width="0.449492" stroke-linecap="round" stroke-linejoin="round"/>
<path id="Vector_14" d="M84.6023 59.9216C87.2371 64.1976 92.2013 67.3211 98.1022 68.1234" stroke="#263238" stroke-width="0.449492" stroke-linecap="round" stroke-linejoin="round"/>
<path id="Vector_15" d="M82.5701 52.8885C82.5707 53.7087 82.6484 54.5271 82.8023 55.3328" stroke="#263238" stroke-width="0.449492" stroke-linecap="round" stroke-linejoin="round"/>
<path id="Vector_16" d="M101.14 37.446C92.9018 37.446 85.9136 41.9256 83.4946 48.0994" stroke="#263238" stroke-width="0.449492" stroke-linecap="round" stroke-linejoin="round"/>
</g>
<g id="freepik--Character--inject-31">
<path id="Vector_17" d="M133.275 78.622C133.275 78.622 125.452 80.927 123.689 84.6736C121.926 88.4202 118.395 98.8863 118.395 98.8863C118.395 98.8863 115.088 104.726 115.088 106.489C115.088 108.253 119.975 114.793 122.182 116.556C124.39 118.32 132.628 106.709 132.628 106.709L133.275 78.622Z" fill="white" stroke="#263238" stroke-width="0.449492" stroke-linecap="round" stroke-linejoin="round"/>
<path id="Vector_18" d="M168.64 130.7C168.742 130.789 169.047 134.707 169.047 134.707C169.047 134.707 171.137 138.832 171.112 145.145C171.088 151.457 173.12 183.788 173.12 183.788H123.131C123.131 183.788 126.605 159.549 131.533 147.283C131.533 147.283 131.683 137.216 134.383 134.41C134.383 134.41 133.21 130.28 135.605 129.771C137.999 129.262 168.64 130.7 168.64 130.7Z" fill="#999999"/>
<g id="Group">
<path id="Vector_19" opacity="0.2" d="M173.12 183.788H123.131C123.131 183.788 126.605 159.549 131.533 147.283C131.533 147.283 131.561 145.369 131.818 142.974C134.118 144.082 137.152 145.678 137.999 146.774C139.421 148.606 134.375 151.282 134.375 151.282C134.832 151.777 135.396 152.162 136.024 152.407C136.652 152.653 137.327 152.753 137.999 152.699C140.235 152.475 149.032 150.467 149.032 150.467C149.032 150.467 145.745 152.475 146.144 153.9C146.543 155.326 150.156 159.968 152.118 161.108C154.081 162.249 148.128 159.968 148.128 159.968C148.128 159.968 154.896 170.907 158.968 173.093C163.041 175.28 171.361 168.512 170.167 167.95C168.974 167.388 164.136 160.803 165.016 159.695C165.521 159.056 168.514 160.738 171.813 161.577C172.407 172.222 173.12 183.788 173.12 183.788Z" fill="black"/>
</g>
<path id="Vector_20" d="M168.64 130.7C168.742 130.789 169.047 134.707 169.047 134.707C169.047 134.707 171.137 138.832 171.112 145.145C171.088 151.457 173.12 183.788 173.12 183.788H123.131C123.131 183.788 126.605 159.549 131.533 147.283C131.533 147.283 131.683 137.216 134.383 134.41C134.383 134.41 133.21 130.28 135.605 129.771C137.999 129.262 168.64 130.7 168.64 130.7Z" stroke="#263238" stroke-width="0.449492" stroke-linecap="round" stroke-linejoin="round"/>
<path id="Vector_21" d="M135.45 130.846C135.277 132.013 135.277 133.199 135.45 134.365C139.155 136.842 143.457 138.279 147.908 138.527C155.099 138.832 165.354 136.898 168.168 135.269V131.4L135.45 130.846Z" fill="#263238"/>
<path id="Vector_22" d="M140.032 132.956C140.032 132.956 139.421 136.185 140.032 137.407C140.642 138.629 146.165 138.963 146.165 138.963L145.99 134.365L140.032 132.956Z" fill="#BFBFBF" stroke="#263238" stroke-width="0.449492" stroke-linecap="round" stroke-linejoin="round"/>
<g id="Vector_23">
<path d="M158.968 139.569C158.831 137.815 158.55 136.074 158.129 134.365L156.423 134.41C156.423 134.41 157.339 137.558 156.83 139.569" fill="#999999"/>
<path d="M158.968 139.569C158.831 137.815 158.55 136.074 158.129 134.365L156.423 134.41C156.423 134.41 157.339 137.558 156.83 139.569" stroke="#263238" stroke-width="0.449492" stroke-linecap="round" stroke-linejoin="round"/>
</g>
<path id="Vector_24" opacity="0.2" d="M132.848 97.3266L132.636 106.693C130.944 109.055 129.118 111.317 127.167 113.47C127.065 112.248 126.943 110.802 126.796 109.157C126.116 101.554 128.698 95.4451 128.543 94.9931L132.848 97.3266Z" fill="#D4E6FC"/>
<g id="Vector_25">
<path d="M129.688 79.9864C131.299 79.2256 132.948 78.546 134.628 77.9502C134.839 77.3963 134.334 75.7429 139.433 73.1C144.532 70.457 151.894 72.1104 151.894 72.1104L154.745 75.6371C154.745 75.6371 164.661 79.5832 166.962 81.5746C169.263 83.566 171.194 130.219 169.28 131.889C163.814 136.654 140.642 137.305 134.359 130.993C132.999 129.633 132.082 119.786 129.472 105.174C129.472 105.174 124.508 93.7714 124.776 87.5325" fill="white"/>
<path d="M129.688 79.9864C131.299 79.2256 132.948 78.546 134.628 77.9502C134.839 77.3963 134.334 75.7429 139.433 73.1C144.532 70.457 151.894 72.1104 151.894 72.1104L154.745 75.6371C154.745 75.6371 164.661 79.5832 166.962 81.5746C169.263 83.566 171.194 130.219 169.28 131.889C163.814 136.654 140.642 137.305 134.359 130.993C132.999 129.633 132.082 119.786 129.472 105.174C129.472 105.174 124.508 93.7714 124.776 87.5325" stroke="#263238" stroke-width="0.449492" stroke-linecap="round" stroke-linejoin="round"/>
</g>
<path id="Vector_26" opacity="0.2" d="M154.594 76.3741C154.594 76.3741 155.14 81.2609 150.115 84.5188C150.115 84.5188 147.806 83.0406 146.177 82.8899C144.548 82.7392 143.986 83.2971 143.986 83.2971C143.986 83.2971 143.644 81.3831 144.426 80.1247C145.208 78.8664 146.739 79.8356 149.256 83.2971C149.272 83.2971 153.528 81.208 154.594 76.3741Z" fill="#D4E6FC"/>
<path id="Vector_27" opacity="0.2" d="M139.062 81.5786C139.062 81.5786 137.079 81.6682 136.085 83.2972C135.092 84.9261 134.79 85.537 134.79 85.537C134.79 85.537 133.194 83.9569 134.383 79.07C134.252 80.481 134.315 81.9034 134.57 83.2972C134.57 83.2972 135.597 79.518 136.094 79.4691C136.59 79.4203 137.58 79.7135 139.062 81.5786Z" fill="#D4E6FC"/>
<path id="Vector_28" d="M136.085 70.7623C136.91 71.6556 137.498 72.7409 137.796 73.9195C138.094 75.098 138.093 76.3324 137.792 77.5103L141.363 83.2971L143.562 78.1741C143.562 78.1741 148.657 76.8505 150.143 73.3809C147.992 69.3567 147.169 64.7556 147.79 60.2352C148.787 52.5628 136.085 70.7623 136.085 70.7623Z" fill="#BFBFBF" stroke="#263238" stroke-width="0.449492" stroke-linecap="round" stroke-linejoin="round"/>
<g id="Vector_29">
<path d="M148.107 63.7944C149.683 52.0333 146.161 47.3419 136.912 48.0016C127.664 48.6614 127.513 58.9971 129.72 63.3831C130.461 64.8573 130.221 68.0826 134.819 73.2383C136.582 75.2175 141.213 73.727 144.528 70.4609" fill="#BFBFBF"/>
<path d="M148.107 63.7944C149.683 52.0333 146.161 47.3419 136.912 48.0016C127.664 48.6614 127.513 58.9971 129.72 63.3831C130.461 64.8573 130.221 68.0826 134.819 73.2383C136.582 75.2175 141.213 73.727 144.528 70.4609" stroke="#263238" stroke-width="0.449492" stroke-linecap="round" stroke-linejoin="round"/>
</g>
<path id="Vector_30" d="M134.351 60.9519C134.351 60.9519 135.259 59.3433 137.739 60.9519" stroke="#263238" stroke-width="0.449492" stroke-linecap="round" stroke-linejoin="round"/>
<path id="Vector_31" d="M130.633 60.9522C130.633 60.9522 129.289 59.84 128.885 60.9522" stroke="#263238" stroke-width="0.449492" stroke-linecap="round" stroke-linejoin="round"/>
<path id="Vector_32" d="M136.538 63.3794C136.644 63.7868 136.538 64.1616 136.277 64.2267C136.016 64.2919 135.739 64.019 135.638 63.6157C135.536 63.2123 135.638 62.8335 135.898 62.7683C136.159 62.7031 136.436 62.9761 136.538 63.3794Z" fill="#263238"/>
<path id="Vector_33" d="M131.549 63.3794C131.655 63.7868 131.549 64.1616 131.288 64.2268C131.028 64.2919 130.751 64.019 130.645 63.6157C130.539 63.2124 130.645 62.8335 130.91 62.7683C131.174 62.7031 131.447 62.9761 131.549 63.3794Z" fill="#263238"/>
<path id="Vector_34" d="M131.756 61.8519C132.779 63.2569 131.834 65.0284 131.5 66.3967C131.166 67.765 133.235 67.6795 133.813 67.2112" stroke="#263238" stroke-width="0.449492" stroke-linecap="round" stroke-linejoin="round"/>
<path id="Vector_35" d="M143.106 62.756C143.106 62.756 142.239 60.0072 144.1 58.647C145.961 57.2868 145.835 65.4886 145.835 65.4886L147.61 66.4823C147.61 66.4823 150.172 59.7058 148.934 54.7456C147.696 49.7855 142.679 46.271 135.756 48.1443C126.466 50.6529 128.556 58.2601 128.556 58.2601C128.556 58.2601 128.963 56.1099 129.403 56.2239C129.842 56.338 131.317 57.7511 138.521 55.271C138.521 55.271 139.335 55.9755 139.152 57.7144C138.969 59.4533 142.06 61.0008 142.54 63.8963L143.106 62.756Z" fill="#999999"/>
<g id="Group_2">
<path id="Vector_36" opacity="0.4" d="M143.106 62.756C143.106 62.756 142.239 60.0072 144.1 58.647C145.961 57.2868 145.835 65.4886 145.835 65.4886L147.61 66.4823C147.61 66.4823 150.172 59.7058 148.934 54.7456C147.696 49.7855 142.679 46.271 135.756 48.1443C126.466 50.6529 128.556 58.2601 128.556 58.2601C128.556 58.2601 128.963 56.1099 129.403 56.2239C129.842 56.338 131.317 57.7511 138.521 55.271C138.521 55.271 139.335 55.9755 139.152 57.7144C138.969 59.4533 142.06 61.0008 142.54 63.8963L143.106 62.756Z" fill="black"/>
</g>
<path id="Vector_37" d="M143.106 62.756C143.106 62.756 142.239 60.0072 144.1 58.647C145.961 57.2868 145.835 65.4886 145.835 65.4886L147.61 66.4823C147.61 66.4823 150.172 59.7058 148.934 54.7456C147.696 49.7855 142.679 46.271 135.756 48.1443C126.466 50.6529 128.556 58.2601 128.556 58.2601C128.556 58.2601 128.963 56.1099 129.403 56.2239C129.842 56.338 131.317 57.7511 138.521 55.271C138.521 55.271 139.335 55.9755 139.152 57.7144C138.969 59.4533 142.06 61.0008 142.54 63.8963L143.106 62.756Z" stroke="#263238" stroke-width="0.449492" stroke-linecap="round" stroke-linejoin="round"/>
<path id="Vector_38" d="M131.129 67.6917C131.741 67.9224 132.402 67.9897 133.047 67.8872L133.455 68.3392L133.825 67.932C133.825 67.932 136.098 68.2293 137.213 67.932C138.329 67.6347 139.486 68.3392 140.064 68.3392C140.064 68.3392 142.54 65.3664 142.296 63.8352C142.211 63.1646 142.075 62.5016 141.889 61.8519C141.889 61.8519 142.357 62.2795 142.605 62.1981C142.688 62.1803 142.762 62.1374 142.819 62.0754C142.876 62.0134 142.912 61.9354 142.923 61.8519C142.923 61.8519 145.33 66.7388 145.277 70.6972C145.277 70.6972 142.524 75.2705 138.875 75.5311C134.782 75.8202 132.656 74.2279 132.656 74.2279C132.236 72.9433 132.115 71.5797 132.302 70.2411C132.019 69.9498 131.692 69.7051 131.333 69.5162C131.175 68.9215 131.106 68.3066 131.129 67.6917Z" fill="#263238"/>
<path id="Vector_39" d="M129.39 56.2361C128.791 55.9293 128.305 55.4392 128.003 54.8372C127.701 54.2351 127.6 53.5525 127.713 52.8886C128.095 50.5185 129.859 49.6918 131.125 48.9791C131.125 48.9791 133.707 46.7719 138.509 46.499C144.291 46.1691 149.911 49.199 148.592 53.6664C148.592 53.6664 140.447 50.1927 138.509 55.2954C138.509 55.2832 132.905 58.5329 129.39 56.2361Z" fill="#263238"/>
<g id="Vector_40">
<path d="M143.55 60.2352C143.55 60.2352 145.366 56.7452 146.58 57.9017C147.794 59.0583 147.46 60.7524 147.048 62.3814C146.637 64.0103 146.495 63.7334 145.725 64.4746C144.955 65.2158 144.137 65.9692 143.852 65.1628C143.681 64.6998 143.63 64.2009 143.705 63.713" fill="#BFBFBF"/>
<path d="M143.55 60.2352C143.55 60.2352 145.366 56.7452 146.58 57.9017C147.794 59.0583 147.46 60.7524 147.048 62.3814C146.637 64.0103 146.495 63.7334 145.725 64.4746C144.955 65.2158 144.137 65.9692 143.852 65.1628C143.681 64.6998 143.63 64.2009 143.705 63.713" stroke="#263238" stroke-width="0.449492" stroke-linecap="round" stroke-linejoin="round"/>
</g>
<path id="Vector_41" d="M137.963 70.3674C134.705 70.4488 133.638 69.9601 133.638 69.9601C133.599 70.0185 133.544 70.0645 133.48 70.0926C133.416 70.1208 133.345 70.1299 133.276 70.1189L133.813 71.2307C133.813 71.2307 134.351 71.5646 135.743 71.5646C136.92 71.5646 137.963 70.3674 137.963 70.3674Z" fill="white"/>
<path id="Vector_42" opacity="0.2" d="M135.177 55.3687C135.177 55.3687 133.854 52.7217 137.323 51.1131C140.793 49.5045 146.413 50.1194 147.777 51.9276" stroke="white" stroke-width="0.449492" stroke-linecap="round" stroke-linejoin="round"/>
<path id="Vector_43" opacity="0.2" d="M131.59 55.8614C131.59 55.8614 127.778 55.6985 130.608 51.9804C133.438 48.2623 139.433 47.0935 139.433 47.0935" stroke="white" stroke-width="0.449492" stroke-linecap="round" stroke-linejoin="round"/>
<path id="Vector_44" d="M154.757 75.6411C154.439 77.2334 153.785 78.7398 152.839 80.0598C151.893 81.3799 150.677 82.4835 149.272 83.2971C149.272 83.2971 146.641 79.3795 145.257 79.4691C144.58 79.5098 143.55 81.5786 143.55 81.5786" stroke="#263238" stroke-width="0.449492" stroke-linecap="round" stroke-linejoin="round"/>
<path id="Vector_45" d="M134.627 77.9501C134.155 79.8234 134.485 83.5456 134.485 83.5456C134.485 83.5456 135.629 79.8316 136.085 79.4732C136.9 78.8135 139.433 82.0347 139.433 82.0347" stroke="#263238" stroke-width="0.449492" stroke-linecap="round" stroke-linejoin="round"/>
<path id="Vector_46" d="M141.351 83.2972L139.421 84.5637C139.421 84.5637 141.595 86.9868 141.339 89.1899C141.082 91.3931 141.864 96.2433 141.864 96.2433" stroke="#263238" stroke-width="0.449492" stroke-linecap="round" stroke-linejoin="round"/>
<path id="Vector_47" d="M122.907 105.565C124.224 108.154 124.751 111.073 124.422 113.958C124.422 113.958 121.571 117.908 119.385 118.499C114.066 119.932 110.861 108.11 104.471 92.2361C104.064 91.218 107.693 85.8384 107.693 85.8384L118.244 102.254C119.231 102.389 120.17 102.761 120.982 103.338C121.794 103.914 122.454 104.678 122.907 105.565Z" fill="#BFBFBF" stroke="#263238" stroke-width="0.449492" stroke-linecap="round" stroke-linejoin="round"/>
<g id="Vector_48">
<path d="M107.249 87.0316L104.541 83.3664C104.541 83.3664 100.468 81.0289 100.016 82.4257C99.3525 84.5189 96.0131 85.1379 96.0131 85.1379C96.3063 86.209 99.5683 90.9818 101.417 92.061C103.266 93.1402 103.453 93.4578 104.215 93.69C106.149 94.2071 106.609 92.8185 106.609 92.8185" fill="#BFBFBF"/>
<path d="M107.249 87.0316L104.541 83.3664C104.541 83.3664 100.468 81.0289 100.016 82.4257C99.3525 84.5189 96.0131 85.1379 96.0131 85.1379C96.3063 86.209 99.5683 90.9818 101.417 92.061C103.266 93.1402 103.453 93.4578 104.215 93.69C106.149 94.2071 106.609 92.8185 106.609 92.8185" stroke="#263238" stroke-width="0.449492" stroke-linecap="round" stroke-linejoin="round"/>
</g>
<path id="Vector_49" d="M85.6977 102.991C85.6977 102.991 70.8212 89.1696 89.2977 84.1769C107.774 79.1841 102.916 97.4692 102.916 97.4692L101.694 97.6809C101.694 97.6809 106.536 81.3181 89.9248 85.5859C73.3136 89.8538 86.3859 102.156 86.3859 102.156L85.6977 102.991Z" fill="#757575" stroke="#263238" stroke-width="0.449492" stroke-linecap="round" stroke-linejoin="round"/>
<g id="Vector_50">
<path d="M105.469 89.532C102.346 88.0089 103.433 85.2193 100.395 83.4601C99.5805 82.9877 96.9375 83.2768 96.1027 82.6904C94.8484 81.8148 95.2882 81.2121 95.3208 81.1062C95.3615 80.8659 96.2412 81.6478 99.2384 80.8008C100.436 80.4628 103.718 81.489 104.744 82.3849C107.155 84.4782 109.252 86.946 109.024 88.8763C108.894 89.9881 107.656 90.4361 107.656 90.4361" fill="#BFBFBF"/>
<path d="M105.469 89.532C102.346 88.0089 103.433 85.2193 100.395 83.4601C99.5805 82.9877 96.9375 83.2768 96.1027 82.6904C94.8484 81.8148 95.2882 81.2121 95.3208 81.1062C95.3615 80.8659 96.2412 81.6478 99.2384 80.8008C100.436 80.4628 103.718 81.489 104.744 82.3849C107.155 84.4782 109.252 86.946 109.024 88.8763C108.894 89.9881 107.656 90.4361 107.656 90.4361" stroke="#263238" stroke-width="0.449492" stroke-linecap="round" stroke-linejoin="round"/>
</g>
<path id="Vector_51" d="M96.5099 84.808C96.5099 84.808 99.1285 84.1686 99.9633 84.1768C101.112 84.1768 101.474 84.3478 101.747 84.8365C101.82 85.0107 101.854 85.1989 101.845 85.3877C101.837 85.5765 101.787 85.761 101.698 85.9279C102.119 86.1279 102.453 86.4737 102.639 86.9012C102.729 87.3652 102.634 87.8462 102.374 88.241C102.828 88.3751 103.239 88.6249 103.567 88.9659C103.73 89.1239 103.827 89.3375 103.839 89.564C103.852 89.7905 103.778 90.0133 103.633 90.1876C103.633 90.1876 105.107 91.1976 104.288 91.8166C103.47 92.4356 101.234 93.3275 100.216 93.2297C99.1977 93.132 92.8163 85.3741 96.5099 84.808Z" fill="#BFBFBF" stroke="#263238" stroke-width="0.449492" stroke-linecap="round" stroke-linejoin="round"/>
<path id="Vector_52" d="M101.698 85.928C101.698 85.928 97.5362 87.2027 96.404 87.1742" stroke="#263238" stroke-width="0.449492" stroke-linecap="round" stroke-linejoin="round"/>
<path id="Vector_53" d="M102.362 88.2411C102.362 88.2411 98.819 89.5157 98.09 89.6583" stroke="#263238" stroke-width="0.449492" stroke-linecap="round" stroke-linejoin="round"/>
<path id="Vector_54" d="M103.633 90.1673C102.362 90.6998 101.059 91.1514 99.7312 91.5193" stroke="#263238" stroke-width="0.449492" stroke-linecap="round" stroke-linejoin="round"/>
<path id="Vector_55" d="M85.4208 100.886C85.4208 100.886 89.9819 93.0832 101.303 94.48L110.609 113.848C110.609 113.848 104.769 124.925 88.247 122.303L85.4208 100.886Z" fill="#757575" stroke="#263238" stroke-width="0.449492" stroke-linecap="round" stroke-linejoin="round"/>
<g id="Vector_56">
<path d="M89.8027 116.373C89.8027 116.373 79.8457 108.986 73.1059 116.512L76.1683 118.804C76.1683 118.804 79.3081 112.203 89.9126 120.352" fill="#757575"/>
<path d="M89.8027 116.373C89.8027 116.373 79.8457 108.986 73.1059 116.512L76.1683 118.804C76.1683 118.804 79.3081 112.203 89.9126 120.352" stroke="#263238" stroke-width="0.449492" stroke-linecap="round" stroke-linejoin="round"/>
</g>
<g id="Vector_57">
<path d="M86.3697 100.967C86.3697 100.967 97.1086 102.026 100.436 95.0094L86.3697 100.967Z" fill="#757575"/>
<path d="M86.3697 100.967C86.3697 100.967 97.1086 102.026 100.436 95.0094" stroke="#263238" stroke-width="0.449492" stroke-linecap="round" stroke-linejoin="round"/>
</g>
<path id="Vector_58" d="M67.433 117.171C67.433 117.171 71.6602 114.203 75.4068 116.389C76.4563 116.987 77.2943 117.895 77.805 118.99C78.3157 120.084 78.4738 121.31 78.2574 122.498C78.2574 122.498 72.6335 122.938 67.433 117.171Z" fill="#757575" stroke="#263238" stroke-width="0.449492" stroke-linecap="round" stroke-linejoin="round"/>
<path id="Vector_59" d="M69.5018 117.188C69.5018 117.188 76.0747 118.943 78.2738 122.506" stroke="#263238" stroke-width="0.449492" stroke-linecap="round" stroke-linejoin="round"/>
<g id="Vector_60">
<path d="M94.8688 95.9705L94.1072 92.7981C94.1072 92.7981 89.8679 92.6841 88.4059 95.1235L90.2955 97.6239" fill="#757575"/>
<path d="M94.8688 95.9705L94.1072 92.7981C94.1072 92.7981 89.8679 92.6841 88.4059 95.1235L90.2955 97.6239" stroke="#263238" stroke-width="0.449492" stroke-linecap="round" stroke-linejoin="round"/>
</g>
<path id="Vector_61" d="M94.6244 96.6343C93.7852 97.0979 92.8589 97.3822 91.904 97.4691" stroke="#263238" stroke-width="0.449492" stroke-linecap="round" stroke-linejoin="round"/>
<path id="Vector_62" d="M91.0773 117.004C91.0773 117.004 92.0343 118.303 90.833 119.957" stroke="#263238" stroke-width="0.449492" stroke-linecap="round" stroke-linejoin="round"/>
<path id="Vector_63" opacity="0.2" d="M167.386 101.024C167.386 101.024 163.448 114.602 154.761 121.386C150.795 124.485 132.64 119.484 132.64 119.484L133.817 112.447L139.763 109.629C139.763 109.629 150.286 93.1564 155.987 91.5234C161.689 89.8904 167.386 101.024 167.386 101.024Z" fill="#D4E6FC"/>
<g id="Vector_64">
<path d="M162.255 81.9207C158.064 82.0388 147.048 102.226 147.048 102.226C144.063 103.358 145.485 105.972 145.485 105.972C145.485 105.972 152.485 114.85 153.809 115.608C157.066 117.481 158.243 114.203 158.243 114.203C158.243 114.203 172 101.704 171.063 91.5275C170.127 81.3505 166.991 81.5786 166.991 81.5786" fill="white"/>
<path d="M162.255 81.9207C158.064 82.0388 147.048 102.226 147.048 102.226C144.063 103.358 145.485 105.972 145.485 105.972C145.485 105.972 152.485 114.85 153.809 115.608C157.066 117.481 158.243 114.203 158.243 114.203C158.243 114.203 172 101.704 171.063 91.5275C170.127 81.3505 166.991 81.5786 166.991 81.5786" stroke="#263238" stroke-width="0.449492" stroke-linecap="round" stroke-linejoin="round"/>
</g>
<path id="Vector_65" d="M146.218 105.182L142.023 109.715C133.109 108.847 116.856 115.599 112.156 113.144C109.423 111.714 102.863 113.185 101.885 113.677C100.908 114.17 98.8434 116.727 99.609 117.057C100.375 117.387 102.052 115.86 103.005 115.999C103.883 116.067 104.764 116.059 105.64 115.974C105.64 115.974 101.507 119.896 100.582 120.063C99.6579 120.23 94.9624 122.233 96.6647 122.584C99.047 123.072 99.9552 122.828 99.9552 122.828C99.9552 122.828 102.105 124.355 103.706 124.518C104.52 124.603 109.041 123.789 109.041 123.789L113.17 119.851C113.17 119.851 140.651 121.28 145.485 119.248C151.789 116.601 153.808 114.414 153.808 114.414C153.808 114.414 151.141 106.677 146.218 105.182Z" fill="#BFBFBF" stroke="#263238" stroke-width="0.449492" stroke-linecap="round" stroke-linejoin="round"/>
<path id="Vector_66" d="M142.214 138.429C142.121 138.409 140.089 150.439 142.964 152.984C142.964 152.984 144.625 158.73 144.316 162.68C144.006 166.631 146.165 174.669 146.165 174.669L147.606 183.788" stroke="#263238" stroke-width="0.449492" stroke-linecap="round" stroke-linejoin="round"/>
<path id="Vector_67" d="M144.308 138.784C144.308 138.784 143.289 144.737 143.697 146.875C144.104 149.013 143.22 151.208 141.982 151.282" stroke="#263238" stroke-width="0.449492" stroke-linecap="round" stroke-linejoin="round"/>
<path id="Vector_68" d="M163.297 136.967C163.297 136.967 165.146 146.884 168.184 147.702" stroke="#263238" stroke-width="0.449492" stroke-linecap="round" stroke-linejoin="round"/>
<path id="Vector_69" d="M167.011 135.599C167.952 140.563 168.339 145.617 168.168 150.667C167.927 159.398 169.903 176.909 170.086 179.047C170.189 180.626 170.189 182.209 170.086 183.788" stroke="#263238" stroke-width="0.449492" stroke-linecap="round" stroke-linejoin="round"/>
<path id="Vector_70" d="M150.689 149.897C149.907 150.235 140.337 153.086 138.504 155.326" stroke="#263238" stroke-width="0.449492" stroke-linecap="round" stroke-linejoin="round"/>
<path id="Vector_71" d="M144.308 155.554C144.308 155.554 150.917 163.572 154.126 164.387" stroke="#263238" stroke-width="0.449492" stroke-linecap="round" stroke-linejoin="round"/>
<path id="Vector_72" d="M141.428 156.344C141.428 156.344 131.276 166.321 129.488 165.189" stroke="#263238" stroke-width="0.449492" stroke-linecap="round" stroke-linejoin="round"/>
<path id="Vector_73" d="M144.597 167.95C144.597 167.95 141.795 179.027 141.982 180.257C142.17 181.487 141.029 183.788 141.029 183.788" stroke="#263238" stroke-width="0.449492" stroke-linecap="round" stroke-linejoin="round"/>
<path id="Vector_74" d="M141.864 124.526C141.864 124.526 142.479 127.719 141.864 129.661C141.249 131.604 141.921 134.548 142.764 134.703" stroke="#263238" stroke-width="0.449492" stroke-linecap="round" stroke-linejoin="round"/>
<path id="Vector_75" d="M118.244 102.254C118.244 102.254 121.502 105.773 121.502 108.505" stroke="#263238" stroke-width="0.449492" stroke-linecap="round" stroke-linejoin="round"/>
<path id="Vector_76" d="M77.0115 124.526C77.0115 124.526 76.7427 125.394 76.3638 126.881" stroke="#263238" stroke-width="0.449492" stroke-linecap="round" stroke-linejoin="round"/>
<path id="Vector_77" d="M75.7815 129.299C75.5412 130.386 75.2846 131.62 75.0403 132.964" stroke="#263238" stroke-width="0.449492" stroke-linecap="round" stroke-linejoin="round" stroke-dasharray="2.75 2.75"/>
<path id="Vector_78" d="M74.8286 134.19C74.7023 134.968 74.5761 135.775 74.4661 136.61" stroke="#263238" stroke-width="0.449492" stroke-linecap="round" stroke-linejoin="round"/>
<path id="Vector_79" d="M71.4651 122.404C71.4651 122.404 70.9641 123.183 70.243 124.515" stroke="#263238" stroke-width="0.449492" stroke-linecap="round" stroke-linejoin="round"/>
<path id="Vector_80" d="M68.6507 127.662C67.9052 129.255 67.2432 130.886 66.6674 132.549" stroke="#263238" stroke-width="0.449492" stroke-linecap="round" stroke-linejoin="round" stroke-dasharray="3.89 3.89"/>
<path id="Vector_81" d="M66.1179 134.243C65.8897 135.017 65.6833 135.806 65.4986 136.61" stroke="#263238" stroke-width="0.449492" stroke-linecap="round" stroke-linejoin="round"/>
<path id="Vector_82" d="M67.4338 119.049C66.6749 119.348 65.9596 119.748 65.3072 120.238" stroke="#263238" stroke-width="0.449492" stroke-linecap="round" stroke-linejoin="round"/>
<path id="Vector_83" d="M63.1082 121.932C62.0528 122.834 61.0723 123.82 60.176 124.88" stroke="#263238" stroke-width="0.449492" stroke-linecap="round" stroke-linejoin="round" stroke-dasharray="3.06 3.06"/>
<path id="Vector_84" d="M59.3132 125.968C58.8269 126.621 58.3781 127.301 57.9688 128.005" stroke="#263238" stroke-width="0.449492" stroke-linecap="round" stroke-linejoin="round"/>
<path id="Vector_85" d="M147.048 102.226C150.111 102.69 154.59 108.289 155.405 110.427" stroke="#263238" stroke-width="0.449492" stroke-linecap="round" stroke-linejoin="round"/>
<path id="Vector_86" d="M170.086 95.0094C170.086 95.0094 162.735 99.489 155.405 99.941" stroke="#263238" stroke-width="0.449492" stroke-linecap="round" stroke-linejoin="round"/>
<path id="Vector_87" d="M117.837 99.941C117.837 99.941 121.616 99.1754 123.538 102.254C124.726 104.179 125.586 106.287 126.084 108.493" stroke="#263238" stroke-width="0.449492" stroke-linecap="round" stroke-linejoin="round"/>
<path id="Vector_88" d="M123.131 93.2054C123.131 93.2054 124.96 97.2167 127.102 98.8823" stroke="#263238" stroke-width="0.449492" stroke-linecap="round" stroke-linejoin="round"/>
<path id="Vector_89" d="M141.864 104.828C142.034 106.451 142.086 108.084 142.019 109.715" stroke="#263238" stroke-width="0.449492" stroke-linecap="round" stroke-linejoin="round"/>
<path id="Vector_90" d="M135.959 123.561C135.959 123.561 144.002 132.614 156.423 130.175" stroke="#263238" stroke-width="0.449492" stroke-linecap="round" stroke-linejoin="round"/>
<path id="Vector_91" d="M142.545 85.6879C142.541 85.7772 142.51 85.8633 142.458 85.9356C142.405 86.0079 142.333 86.0632 142.249 86.0946C142.166 86.1261 142.075 86.1323 141.987 86.1124C141.9 86.0926 141.821 86.0476 141.759 85.983C141.697 85.9185 141.656 85.8372 141.64 85.7493C141.624 85.6614 141.634 85.5707 141.669 85.4885C141.704 85.4063 141.763 85.3362 141.837 85.287C141.912 85.2377 141.999 85.2113 142.088 85.2112C142.212 85.2144 142.329 85.2663 142.415 85.3556C142.5 85.4449 142.547 85.5643 142.545 85.6879Z" fill="#263238"/>
<path id="Vector_92" d="M143.111 97.681C143.107 97.7703 143.077 97.8564 143.024 97.9287C142.972 98.001 142.899 98.0563 142.815 98.0878C142.732 98.1192 142.641 98.1254 142.554 98.1055C142.466 98.0857 142.387 98.0407 142.325 97.9762C142.263 97.9116 142.222 97.8304 142.206 97.7424C142.19 97.6545 142.2 97.5639 142.235 97.4817C142.27 97.3995 142.329 97.3294 142.403 97.2801C142.478 97.2308 142.565 97.2045 142.654 97.2044C142.716 97.2054 142.776 97.2186 142.832 97.2432C142.889 97.2678 142.939 97.3033 142.982 97.3476C143.024 97.3919 143.058 97.4442 143.08 97.5014C143.102 97.5586 143.112 97.6197 143.111 97.681Z" fill="#263238"/>
</g>
<g id="freepik--Table--inject-31">
<path id="Vector_93" d="M15.62 183.787H189.918" stroke="#263238" stroke-width="0.449492" stroke-linecap="round" stroke-linejoin="round"/>
</g>
<g id="freepik--Plant--inject-31">
<path id="Vector_94" d="M51.2616 160.396C51.2616 160.396 57.8385 158.087 53.5543 145.092C49.2702 132.097 54.7516 132.382 57.1951 125.809C59.6385 119.236 56.0304 114.785 56.0304 114.785" stroke="#263238" stroke-width="1.34847" stroke-linecap="round" stroke-linejoin="round"/>
<path id="Vector_95" d="M54.5113 157.183H35.3711C35.3711 157.183 37.953 176.632 38.6982 182.26C38.8326 183.283 39.6471 183.788 40.6326 183.788H67.1683C68.1539 183.788 68.9683 183.283 69.1027 182.26C69.848 176.632 72.4299 157.183 72.4299 157.183H54.5113Z" fill="#263238"/>
<path id="Vector_96" d="M34.6625 155.554L73.1385 155.554C73.3793 155.554 73.6103 155.649 73.7806 155.82C73.9509 155.99 74.0466 156.221 74.0466 156.462V157.899C74.0466 158.14 73.9509 158.371 73.7806 158.541C73.6103 158.712 73.3793 158.807 73.1385 158.807L34.6625 158.807C34.4206 158.807 34.1885 158.711 34.0175 158.54C33.8464 158.369 33.7503 158.137 33.7503 157.895V156.458C33.7503 156.338 33.7739 156.219 33.8197 156.109C33.8656 155.998 33.9328 155.897 34.0175 155.813C34.1022 155.728 34.2027 155.661 34.3134 155.615C34.4241 155.569 34.5427 155.545 34.6625 155.545V155.554Z" fill="#263238"/>
<path id="Vector_97" d="M37.4114 158.812H56.8244" stroke="white" stroke-width="0.449492" stroke-linecap="round" stroke-linejoin="round"/>
<path id="Vector_98" d="M59.2679 158.811H60.763" stroke="white" stroke-width="0.449492" stroke-linecap="round" stroke-linejoin="round"/>
<path id="Vector_99" d="M69.7227 158.812H67.0055" stroke="white" stroke-width="0.449492" stroke-linecap="round" stroke-linejoin="round"/>
<path id="Vector_100" d="M38.9059 165.189H46.5091" stroke="white" stroke-width="0.449492" stroke-linecap="round" stroke-linejoin="round"/>
<path id="Vector_101" d="M50.8503 165.189H52.8872" stroke="white" stroke-width="0.449492" stroke-linecap="round" stroke-linejoin="round"/>
<path id="Vector_102" d="M69.176 165.189H61.8457" stroke="white" stroke-width="0.449492" stroke-linecap="round" stroke-linejoin="round"/>
<path id="Vector_103" d="M68.3621 170.483H67.0055" stroke="white" stroke-width="0.449492" stroke-linecap="round" stroke-linejoin="round"/>
<path id="Vector_104" d="M46.5091 170.483H43.6584" stroke="white" stroke-width="0.449492" stroke-linecap="round" stroke-linejoin="round"/>
<path id="Vector_105" d="M60.0131 175.643H64.6964" stroke="white" stroke-width="0.449492" stroke-linecap="round" stroke-linejoin="round"/>
<path id="Vector_106" d="M49.0869 175.643H41.7566" stroke="white" stroke-width="0.449492" stroke-linecap="round" stroke-linejoin="round"/>
<path id="Vector_107" d="M40.262 180.257H42.7064" stroke="white" stroke-width="0.449492" stroke-linecap="round" stroke-linejoin="round"/>
<path id="Vector_108" d="M46.5091 180.257H60.7624" stroke="white" stroke-width="0.449492" stroke-linecap="round" stroke-linejoin="round"/>
<path id="Vector_109" d="M67.6863 180.257H65.5109" stroke="white" stroke-width="0.449492" stroke-linecap="round" stroke-linejoin="round"/>
<path id="Vector_110" d="M60.8928 169.668C60.8936 171.052 60.4842 172.404 59.7164 173.554C58.9485 174.705 57.8568 175.602 56.5791 176.131C55.3015 176.661 53.8955 176.8 52.5389 176.531C51.1822 176.262 49.9359 175.596 48.9576 174.618C47.9793 173.641 47.313 172.395 47.0428 171.038C46.7727 169.682 46.9109 168.276 47.4401 166.998C47.9692 165.72 48.8654 164.627 50.0154 163.859C51.1653 163.09 52.5174 162.68 53.9005 162.68C55.7543 162.68 57.5322 163.416 58.8433 164.727C60.1545 166.037 60.8917 167.815 60.8928 169.668Z" fill="#D4E6FC" stroke="#263238" stroke-width="0.449492" stroke-linecap="round" stroke-linejoin="round"/>
<path id="Vector_111" d="M53.3548 166.451V165.983H54.4462V166.451C55.391 166.598 55.8715 167.135 55.8715 167.991V168.19H54.6132V167.95C54.6132 167.498 54.3729 167.327 53.9494 167.327C53.5258 167.327 53.2856 167.498 53.2856 167.95C53.2856 168.402 53.5258 168.711 54.4218 169.245C55.5091 169.892 55.8837 170.385 55.8837 171.106C55.8837 171.961 55.391 172.511 54.4462 172.654V173.114H53.3548V172.633C52.4018 172.491 51.9172 171.941 51.9172 171.086V170.654H53.1756V171.151C53.1756 171.599 53.4403 171.762 53.8638 171.762C54.2874 171.762 54.5561 171.599 54.5561 171.151C54.5561 170.703 54.3118 170.377 53.4159 169.852C52.3285 169.216 51.9539 168.711 51.9539 167.991C51.9539 167.135 52.4263 166.606 53.3548 166.451Z" fill="white" stroke="#263238" stroke-width="0.449492" stroke-linecap="round" stroke-linejoin="round"/>
<path id="Vector_112" d="M59.7036 169.669C59.706 170.817 59.3678 171.94 58.7316 172.896C58.0954 173.852 57.1899 174.598 56.1297 175.039C55.0695 175.48 53.9023 175.596 52.7758 175.374C51.6493 175.151 50.6142 174.6 49.8013 173.789C48.9885 172.977 48.4346 171.943 48.2097 170.817C47.9848 169.691 48.099 168.524 48.5379 167.463C48.9767 166.402 49.7205 165.495 50.6751 164.856C51.6297 164.218 52.7522 163.878 53.9005 163.878C55.4371 163.879 56.9107 164.489 57.9984 165.574C59.0861 166.66 59.6993 168.132 59.7036 169.669V169.669Z" stroke="#263238" stroke-width="0.449492" stroke-linecap="round" stroke-linejoin="round"/>
<path id="Vector_113" d="M53.029 143.402C53.029 143.402 54.4258 136.165 60.2738 135.599C66.1217 135.033 66.7896 130.451 66.7896 130.451" stroke="#263238" stroke-width="1.34847" stroke-linecap="round" stroke-linejoin="round"/>
<path id="Vector_114" d="M53.6236 130.855C53.6236 130.855 52.2023 130.17 46.9326 126.961C41.6629 123.752 41.8666 118.637 41.8666 118.637" stroke="#263238" stroke-width="1.34847" stroke-linecap="round" stroke-linejoin="round"/>
<path id="Vector_115" d="M54.7516 149.897C54.7516 149.897 44.4363 149.49 42.905 141.027" stroke="#263238" stroke-width="1.34847" stroke-linecap="round" stroke-linejoin="round"/>
<path id="Vector_116" d="M61.2715 111.169C61.16 112.082 60.7802 112.941 60.1803 113.638C59.5803 114.336 58.787 114.839 57.9008 115.086C57.0145 115.332 56.0751 115.31 55.2014 115.022C54.3276 114.735 53.5588 114.195 52.992 113.47C52.4253 112.746 52.0862 111.869 52.0175 110.952C51.9488 110.035 52.1536 109.118 52.6061 108.317C53.0586 107.516 53.7385 106.867 54.5596 106.453C55.3808 106.038 56.3064 105.877 57.2195 105.988C58.4437 106.138 59.5584 106.768 60.3182 107.739C61.0781 108.711 61.421 109.944 61.2715 111.169Z" fill="white"/>
<path id="Vector_117" d="M61.2715 111.169C61.16 112.082 60.7802 112.941 60.1803 113.638C59.5803 114.336 58.787 114.839 57.9008 115.086C57.0145 115.332 56.0751 115.31 55.2014 115.022C54.3276 114.735 53.5588 114.195 52.992 113.47C52.4253 112.746 52.0862 111.869 52.0175 110.952C51.9488 110.035 52.1536 109.118 52.6061 108.317C53.0586 107.516 53.7385 106.867 54.5596 106.453C55.3808 106.038 56.3064 105.877 57.2195 105.988C58.4437 106.138 59.5584 106.768 60.3182 107.739C61.0781 108.711 61.421 109.944 61.2715 111.169V111.169Z" stroke="#263238" stroke-width="0.449492" stroke-linecap="round" stroke-linejoin="round"/>
<path id="Vector_118" d="M60.3837 111.059C60.2933 111.796 59.986 112.49 59.5008 113.053C59.0156 113.616 58.3742 114.022 57.658 114.22C56.9418 114.419 56.1828 114.4 55.4773 114.166C54.7718 113.933 54.1515 113.495 53.6948 112.909C53.2381 112.323 52.9657 111.614 52.912 110.873C52.8583 110.132 53.0257 109.391 53.3931 108.745C53.7605 108.099 54.3113 107.577 54.9758 107.244C55.6402 106.912 56.3885 106.783 57.1258 106.876C58.1122 106.999 59.0095 107.509 59.6203 108.293C60.2312 109.077 60.5058 110.072 60.3837 111.059Z" stroke="#263238" stroke-width="0.449492" stroke-linecap="round" stroke-linejoin="round"/>
<path id="Vector_119" d="M56.0955 108.737C56.2372 108.577 56.4361 108.479 56.6493 108.464L56.686 108.155L57.2236 108.22L57.1828 108.53C57.2867 108.562 57.3831 108.614 57.4663 108.684C57.5495 108.754 57.6179 108.84 57.6674 108.937C57.7686 109.158 57.8012 109.405 57.7611 109.645V109.776L57.1421 109.703L57.1625 109.527C57.1875 109.418 57.1716 109.304 57.1177 109.206C57.0911 109.168 57.0564 109.138 57.0162 109.116C56.976 109.094 56.9313 109.081 56.8855 109.079C56.841 109.07 56.7949 109.072 56.751 109.084C56.7071 109.096 56.6667 109.118 56.6331 109.149C56.557 109.231 56.5136 109.338 56.5109 109.45C56.4944 109.564 56.5055 109.68 56.5435 109.788C56.5815 109.886 56.6322 109.98 56.6941 110.065C56.7552 110.146 56.8489 110.248 56.9629 110.374C57.0842 110.491 57.1959 110.618 57.2969 110.753C57.3862 110.877 57.4537 111.014 57.4964 111.16C57.5465 111.334 57.5589 111.515 57.5331 111.694C57.5137 111.938 57.4215 112.171 57.2684 112.362C57.1964 112.442 57.1094 112.507 57.0122 112.553C56.915 112.599 56.8097 112.625 56.7023 112.631L56.6656 112.932L56.1281 112.867L56.1688 112.565C56.0642 112.534 55.967 112.481 55.8831 112.411C55.7991 112.342 55.7301 112.255 55.6801 112.158C55.5767 111.937 55.544 111.69 55.5865 111.45L55.619 111.164L56.238 111.238L56.1973 111.564C56.1647 111.832 56.2625 111.971 56.4865 112.012C56.7104 112.052 56.8407 111.918 56.8733 111.649C56.8896 111.534 56.8784 111.417 56.8407 111.307C56.8045 111.208 56.7537 111.114 56.6901 111.03C56.6066 110.923 56.5169 110.821 56.4213 110.725C56.3009 110.605 56.1893 110.477 56.0874 110.342C55.9994 110.218 55.9333 110.081 55.8919 109.935C55.8356 109.733 55.8261 109.521 55.8643 109.315C55.9024 109.109 55.987 108.914 56.1118 108.745L56.0955 108.737Z" fill="#263238"/>
<path id="Vector_120" d="M46.6353 114.862C46.759 115.774 46.6096 116.701 46.2062 117.528C45.8028 118.354 45.1633 119.042 44.3688 119.505C43.5742 119.969 42.6602 120.186 41.7423 120.129C40.8243 120.073 39.9437 119.746 39.2117 119.189C38.4796 118.633 37.9291 117.871 37.6296 117.002C37.3302 116.132 37.2953 115.193 37.5293 114.304C37.7633 113.415 38.2558 112.615 38.9444 112.005C39.6331 111.395 40.487 111.004 41.3982 110.879C42.0036 110.797 42.6194 110.834 43.2103 110.99C43.8012 111.145 44.3557 111.416 44.8421 111.786C45.3284 112.156 45.7371 112.618 46.0448 113.146C46.3525 113.673 46.5532 114.257 46.6353 114.862Z" fill="white"/>
<path id="Vector_121" d="M46.6353 114.862C46.759 115.774 46.6096 116.701 46.2062 117.528C45.8028 118.354 45.1633 119.042 44.3688 119.505C43.5742 119.969 42.6602 120.186 41.7423 120.129C40.8243 120.073 39.9437 119.746 39.2117 119.189C38.4796 118.633 37.9291 117.871 37.6296 117.002C37.3302 116.132 37.2953 115.193 37.5293 114.304C37.7633 113.415 38.2558 112.615 38.9444 112.005C39.6331 111.395 40.487 111.004 41.3982 110.879C42.0036 110.797 42.6194 110.834 43.2103 110.99C43.8012 111.145 44.3557 111.416 44.8421 111.786C45.3284 112.156 45.7371 112.618 46.0448 113.146C46.3525 113.673 46.5532 114.257 46.6353 114.862V114.862Z" stroke="#263238" stroke-width="0.449492" stroke-linecap="round" stroke-linejoin="round"/>
<path id="Vector_122" d="M45.7557 114.98C45.8525 115.716 45.7294 116.463 45.4019 117.129C45.0744 117.794 44.5572 118.347 43.9155 118.719C43.2737 119.091 42.5363 119.265 41.7961 119.218C41.0559 119.171 40.3462 118.906 39.7564 118.456C39.1667 118.007 38.7233 117.392 38.4822 116.691C38.2412 115.989 38.2132 115.232 38.4019 114.515C38.5906 113.798 38.9875 113.153 39.5425 112.661C40.0975 112.169 40.7857 111.852 41.5204 111.751C42.0108 111.683 42.5097 111.713 42.9884 111.839C43.4671 111.965 43.9161 112.185 44.3098 112.485C44.7034 112.785 45.0338 113.16 45.2819 113.588C45.5301 114.016 45.6911 114.49 45.7557 114.98V114.98Z" stroke="#263238" stroke-width="0.449492" stroke-linecap="round" stroke-linejoin="round"/>
<path id="Vector_123" d="M41.0154 113.816C41.1117 113.623 41.28 113.477 41.4838 113.408L41.439 113.099L41.9725 113.026L42.0173 113.335C42.233 113.344 42.4366 113.437 42.5833 113.596C42.7379 113.784 42.8329 114.013 42.8562 114.255V114.386L42.2372 114.467L42.2168 114.296C42.211 114.185 42.1663 114.08 42.0906 113.999C42.0172 113.944 41.9255 113.921 41.835 113.933C41.7445 113.945 41.6623 113.992 41.6059 114.064C41.5538 114.163 41.5393 114.277 41.5652 114.386C41.5772 114.5 41.6178 114.609 41.6833 114.703C41.7433 114.791 41.8161 114.869 41.8992 114.936C41.9806 114.997 42.0906 115.074 42.2372 115.164C42.3795 115.249 42.5156 115.344 42.6444 115.449C42.7615 115.543 42.8608 115.657 42.9376 115.787C43.0319 115.94 43.0903 116.113 43.1087 116.292C43.1553 116.532 43.1254 116.782 43.0231 117.004C42.9741 117.101 42.9063 117.186 42.8238 117.256C42.7413 117.326 42.6457 117.379 42.5426 117.412L42.5833 117.717L42.0498 117.786L42.0091 117.485C41.9009 117.482 41.7944 117.457 41.6958 117.412C41.5972 117.368 41.5085 117.304 41.4349 117.224C41.2788 117.036 41.1849 116.804 41.1661 116.56L41.1254 116.279L41.7444 116.194L41.7892 116.52C41.8218 116.789 41.9562 116.927 42.1964 116.878C42.4367 116.829 42.5141 116.695 42.4774 116.426C42.4655 116.312 42.4249 116.203 42.3593 116.108C42.2994 116.021 42.2266 115.943 42.1435 115.876C42.0621 115.815 41.9521 115.738 41.8055 115.648C41.6634 115.564 41.5273 115.47 41.3983 115.367C41.2821 115.27 41.183 115.155 41.105 115.025C40.9997 114.841 40.9369 114.636 40.9214 114.425C40.9059 114.213 40.938 114.001 41.0154 113.803V113.816Z" fill="#263238"/>
<path id="Vector_124" d="M46.3665 137.106C46.4394 138.023 46.2386 138.94 45.7898 139.743C45.341 140.546 44.6641 141.198 43.8449 141.616C43.0257 142.034 42.1009 142.2 41.1874 142.093C40.2739 141.985 39.4127 141.609 38.7129 141.013C38.013 140.416 37.5058 139.625 37.2554 138.74C37.005 137.855 37.0227 136.915 37.3062 136.04C37.5897 135.165 38.1263 134.394 38.8482 133.824C39.57 133.254 40.4447 132.911 41.3616 132.838C41.9706 132.789 42.5832 132.86 43.1645 133.048C43.7458 133.237 44.2843 133.537 44.7492 133.934C45.214 134.33 45.5962 134.814 45.8737 135.359C46.1512 135.903 46.3187 136.497 46.3665 137.106Z" fill="white"/>
<path id="Vector_125" d="M46.3665 137.106C46.4394 138.023 46.2386 138.94 45.7898 139.743C45.341 140.546 44.6641 141.198 43.8449 141.616C43.0257 142.034 42.1009 142.2 41.1874 142.093C40.2739 141.985 39.4127 141.609 38.7129 141.013C38.013 140.416 37.5058 139.625 37.2554 138.74C37.005 137.855 37.0227 136.915 37.3062 136.04C37.5897 135.165 38.1263 134.394 38.8482 133.824C39.57 133.254 40.4447 132.911 41.3616 132.838C41.9706 132.789 42.5832 132.86 43.1645 133.048C43.7458 133.237 44.2843 133.537 44.7492 133.934C45.214 134.33 45.5962 134.814 45.8737 135.359C46.1512 135.903 46.3187 136.497 46.3665 137.106V137.106Z" stroke="#263238" stroke-width="0.449492" stroke-linecap="round" stroke-linejoin="round"/>
<path id="Vector_126" d="M45.4747 137.175C45.536 137.915 45.3762 138.657 45.0156 139.307C44.655 139.956 44.1098 140.484 43.449 140.824C42.7882 141.164 42.0415 141.3 41.3035 141.215C40.5654 141.13 39.8691 140.828 39.3027 140.347C38.7364 139.866 38.3254 139.228 38.1217 138.513C37.9181 137.799 37.9311 137.04 38.1589 136.333C38.3867 135.626 38.8192 135.002 39.4017 134.541C39.9841 134.08 40.6903 133.802 41.4308 133.742C42.4218 133.663 43.4038 133.98 44.1616 134.623C44.9195 135.267 45.3917 136.184 45.4747 137.175V137.175Z" stroke="#263238" stroke-width="0.449492" stroke-linecap="round" stroke-linejoin="round"/>
<path id="Vector_127" d="M40.8037 135.778C40.9105 135.593 41.086 135.456 41.2924 135.399L41.2679 135.09L41.8055 135.045L41.8299 135.355C42.0442 135.375 42.2418 135.478 42.3797 135.644C42.5242 135.84 42.6064 136.076 42.6159 136.32V136.45L41.9969 136.499V136.328C41.9997 136.217 41.9621 136.108 41.891 136.022C41.8209 135.963 41.7305 135.934 41.6392 135.941C41.5478 135.948 41.4628 135.99 41.4023 136.059C41.3439 136.155 41.3222 136.27 41.3412 136.381C41.3497 136.495 41.3845 136.605 41.443 136.703C41.4985 136.794 41.5671 136.876 41.6467 136.947C41.7499 137.036 41.8587 137.119 41.9724 137.195C42.1146 137.288 42.2506 137.39 42.3797 137.501C42.4895 137.603 42.5817 137.723 42.6525 137.855C42.7367 138.015 42.7853 138.192 42.7951 138.372C42.8263 138.614 42.7823 138.86 42.6688 139.077C42.6141 139.169 42.5417 139.25 42.4558 139.314C42.3698 139.378 42.272 139.425 42.1679 139.451L42.1924 139.757L41.6548 139.802L41.6304 139.496C41.5226 139.487 41.4177 139.456 41.3219 139.406C41.2261 139.355 41.1413 139.286 41.0724 139.203C40.9294 139.006 40.8486 138.77 40.8403 138.527L40.8159 138.242L41.439 138.189L41.4634 138.519C41.4634 138.792 41.61 138.926 41.834 138.898C42.058 138.869 42.1638 138.735 42.1435 138.466C42.1351 138.351 42.1002 138.239 42.0417 138.14C41.9862 138.049 41.9176 137.967 41.8381 137.896C41.7607 137.831 41.6548 137.749 41.5123 137.651C41.369 137.558 41.2329 137.455 41.105 137.342C40.9939 137.24 40.9003 137.12 40.8281 136.988C40.7453 136.828 40.6968 136.654 40.6856 136.474C40.6514 136.236 40.6926 135.992 40.8037 135.778Z" fill="#263238"/>
<path id="Vector_128" d="M73.4765 129.116C73.0899 129.95 72.4645 130.652 71.6793 131.131C70.8941 131.61 69.9845 131.846 69.0653 131.808C68.1462 131.77 67.259 131.461 66.5158 130.919C65.7726 130.376 65.2068 129.626 64.8901 128.763C64.5734 127.899 64.5198 126.961 64.7363 126.067C64.9528 125.173 65.4296 124.363 66.1063 123.74C66.7831 123.117 67.6294 122.708 68.5382 122.566C69.4471 122.424 70.3776 122.555 71.2122 122.942C72.331 123.46 73.1981 124.402 73.6227 125.56C74.0473 126.718 73.9947 127.997 73.4765 129.116Z" fill="white"/>
<path id="Vector_129" d="M73.4765 129.116C73.0899 129.95 72.4645 130.652 71.6793 131.131C70.8941 131.61 69.9845 131.846 69.0653 131.808C68.1462 131.77 67.259 131.461 66.5158 130.919C65.7726 130.376 65.2068 129.626 64.8901 128.763C64.5734 127.899 64.5198 126.961 64.7363 126.067C64.9528 125.173 65.4296 124.363 66.1063 123.74C66.7831 123.117 67.6294 122.708 68.5382 122.566C69.4471 122.424 70.3776 122.555 71.2122 122.942C72.331 123.46 73.1981 124.402 73.6227 125.56C74.0473 126.718 73.9947 127.997 73.4765 129.116V129.116Z" stroke="#263238" stroke-width="0.449492" stroke-linecap="round" stroke-linejoin="round"/>
<path id="Vector_130" d="M72.6661 128.741C72.3534 129.414 71.8482 129.98 71.2142 130.366C70.5802 130.753 69.8459 130.942 69.1041 130.911C68.3623 130.88 67.6463 130.63 67.0467 130.192C66.447 129.755 65.9906 129.149 65.7351 128.452C65.4796 127.755 65.4365 126.998 65.6112 126.276C65.7859 125.555 66.1707 124.901 66.7168 124.398C67.2628 123.895 67.9458 123.565 68.6793 123.45C69.4127 123.335 70.1638 123.44 70.8376 123.752C71.2858 123.959 71.6887 124.252 72.0233 124.615C72.3579 124.978 72.6176 125.404 72.7875 125.867C72.9574 126.33 73.0341 126.823 73.0133 127.316C72.9924 127.809 72.8744 128.293 72.6661 128.741V128.741Z" stroke="#263238" stroke-width="0.449492" stroke-linecap="round" stroke-linejoin="round"/>
<path id="Vector_131" d="M69.286 125.214C69.47 125.105 69.6894 125.073 69.8969 125.125L70.0272 124.844L70.5159 125.072L70.3855 125.353C70.5627 125.475 70.6842 125.662 70.7235 125.874C70.7527 126.116 70.7088 126.361 70.5973 126.578L70.5403 126.697L69.9783 126.436L70.0475 126.277C70.1042 126.18 70.1244 126.066 70.1045 125.955C70.0916 125.912 70.0686 125.872 70.0375 125.839C70.0064 125.805 69.968 125.78 69.9254 125.764C69.8841 125.744 69.8388 125.734 69.793 125.734C69.7472 125.734 69.7019 125.744 69.6607 125.764C69.565 125.821 69.4917 125.908 69.453 126.012C69.4021 126.116 69.377 126.231 69.3797 126.346C69.3837 126.452 69.4029 126.556 69.4367 126.656C69.4733 126.754 69.5263 126.88 69.5996 127.03C69.6761 127.181 69.7428 127.336 69.7991 127.495C69.845 127.64 69.867 127.791 69.8643 127.943C69.8588 128.122 69.8158 128.298 69.738 128.46C69.6438 128.687 69.4834 128.88 69.2778 129.014C69.1851 129.067 69.0827 129.102 68.9765 129.116C68.8702 129.13 68.7623 129.123 68.6588 129.095L68.5285 129.372L68.0398 129.144L68.1539 128.855C68.065 128.794 67.989 128.717 67.9303 128.626C67.8715 128.536 67.8313 128.435 67.8118 128.33C67.7818 128.086 67.8258 127.839 67.938 127.621L68.0602 127.36L68.6263 127.625L68.4878 127.922C68.3738 128.167 68.4186 128.33 68.6263 128.435C68.834 128.541 68.9928 128.435 69.1068 128.207C69.1549 128.104 69.1786 127.991 69.176 127.878C69.174 127.771 69.1548 127.665 69.119 127.564C69.0726 127.436 69.0182 127.311 68.9561 127.189C68.8781 127.04 68.8114 126.885 68.7566 126.725C68.7102 126.582 68.6895 126.432 68.6955 126.281C68.698 126.101 68.7411 125.925 68.8217 125.764C68.9178 125.538 69.0796 125.347 69.286 125.214Z" fill="#263238"/>
<path id="Vector_132" d="M66.5901 131.233C66.5901 131.522 70.9272 128.383 75.1421 130.382C75.1421 130.382 70.7358 134.385 66.472 131.897C62.2082 129.409 62.8068 123.304 62.8068 123.304C62.8068 123.304 66.9322 126.183 66.5901 131.233Z" fill="#D4E6FC" stroke="#263238" stroke-width="0.449492" stroke-linecap="round" stroke-linejoin="round"/>
<path id="Vector_133" d="M56.6616 115.363C56.8 115.616 58.7548 110.611 63.3973 110C63.3973 110 61.8661 115.754 56.9344 115.974C52.0027 116.194 49.1969 110.741 49.1969 110.741C49.1969 110.741 54.2059 110.936 56.6616 115.363Z" fill="#D4E6FC" stroke="#263238" stroke-width="0.449492" stroke-linecap="round" stroke-linejoin="round"/>
<path id="Vector_134" d="M42.5507 120.613C42.7299 120.841 43.8702 115.587 48.3539 114.251C48.3539 114.251 47.7512 120.177 42.9213 121.174C38.0915 122.172 34.4589 117.228 34.4589 117.228C34.4589 117.228 39.4272 116.638 42.5507 120.613Z" fill="#D4E6FC" stroke="#263238" stroke-width="0.449492" stroke-linecap="round" stroke-linejoin="round"/>
<path id="Vector_135" d="M43.4915 142.783C43.7073 142.974 43.9313 137.602 48.1218 135.521C48.1218 135.521 48.529 141.463 43.9516 143.259C39.3743 145.055 34.9394 140.816 34.9394 140.816C34.9394 140.816 39.7367 139.386 43.4915 142.783Z" fill="#D4E6FC" stroke="#263238" stroke-width="0.449492" stroke-linecap="round" stroke-linejoin="round"/>
<path id="Vector_136" d="M103.38 157.183H84.2398C84.2398 157.183 86.8217 176.632 87.567 182.26C87.7014 183.283 88.5159 183.788 89.5014 183.788H116.037C117.023 183.788 117.837 183.283 117.971 182.26C118.721 176.632 121.299 157.183 121.299 157.183H103.38Z" fill="#263238"/>
<path id="Vector_137" d="M83.5312 155.554H122.007C122.249 155.554 122.481 155.65 122.652 155.821C122.823 155.992 122.919 156.224 122.919 156.466V157.903C122.919 158.144 122.824 158.375 122.653 158.545C122.483 158.716 122.252 158.811 122.011 158.811H83.5312C83.2893 158.811 83.0573 158.715 82.8862 158.544C82.7151 158.373 82.619 158.141 82.619 157.899V156.462C82.619 156.342 82.6426 156.224 82.6885 156.113C82.7344 156.003 82.8017 155.902 82.8864 155.818C82.9712 155.734 83.0718 155.667 83.1824 155.622C83.2931 155.576 83.4116 155.553 83.5312 155.554Z" fill="#263238"/>
<path id="Vector_138" d="M86.2801 158.812H105.693" stroke="white" stroke-width="0.449492" stroke-linecap="round" stroke-linejoin="round"/>
<path id="Vector_139" d="M108.137 158.811H109.632" stroke="white" stroke-width="0.449492" stroke-linecap="round" stroke-linejoin="round"/>
<path id="Vector_140" d="M118.591 158.812H115.874" stroke="white" stroke-width="0.449492" stroke-linecap="round" stroke-linejoin="round"/>
<path id="Vector_141" d="M87.7747 165.189H95.3778" stroke="white" stroke-width="0.449492" stroke-linecap="round" stroke-linejoin="round"/>
<path id="Vector_142" d="M99.719 165.189H101.756" stroke="white" stroke-width="0.449492" stroke-linecap="round" stroke-linejoin="round"/>
<path id="Vector_143" d="M118.045 165.189H110.714" stroke="white" stroke-width="0.449492" stroke-linecap="round" stroke-linejoin="round"/>
<path id="Vector_144" d="M117.231 170.483H115.874" stroke="white" stroke-width="0.449492" stroke-linecap="round" stroke-linejoin="round"/>
<path id="Vector_145" d="M95.3778 170.483H92.5271" stroke="white" stroke-width="0.449492" stroke-linecap="round" stroke-linejoin="round"/>
<path id="Vector_146" d="M108.882 175.643H113.565" stroke="white" stroke-width="0.449492" stroke-linecap="round" stroke-linejoin="round"/>
<path id="Vector_147" d="M97.9557 175.643H90.6253" stroke="white" stroke-width="0.449492" stroke-linecap="round" stroke-linejoin="round"/>
<path id="Vector_148" d="M89.1308 180.257H91.5751" stroke="white" stroke-width="0.449492" stroke-linecap="round" stroke-linejoin="round"/>
<path id="Vector_149" d="M95.3778 180.257H109.631" stroke="white" stroke-width="0.449492" stroke-linecap="round" stroke-linejoin="round"/>
<path id="Vector_150" d="M116.555 180.257H114.38" stroke="white" stroke-width="0.449492" stroke-linecap="round" stroke-linejoin="round"/>
<path id="Vector_151" d="M109.761 169.668C109.762 171.052 109.353 172.404 108.585 173.554C107.817 174.705 106.725 175.602 105.448 176.131C104.17 176.661 102.764 176.8 101.408 176.531C100.051 176.262 98.8046 175.596 97.8263 174.618C96.848 173.641 96.1817 172.395 95.9115 171.038C95.6414 169.682 95.7796 168.276 96.3088 166.998C96.8379 165.72 97.7341 164.627 98.8841 163.859C100.034 163.09 101.386 162.68 102.769 162.68C104.623 162.68 106.401 163.416 107.712 164.727C109.023 166.037 109.76 167.815 109.761 169.668Z" fill="#D4E6FC" stroke="#263238" stroke-width="0.449492" stroke-linecap="round" stroke-linejoin="round"/>
<path id="Vector_152" d="M108.572 169.669C108.575 170.817 108.236 171.94 107.6 172.896C106.964 173.852 106.059 174.598 104.998 175.039C103.938 175.48 102.771 175.596 101.645 175.374C100.518 175.151 99.4829 174.6 98.6701 173.789C97.8573 172.977 97.3034 171.943 97.0785 170.817C96.8535 169.691 96.9678 168.524 97.4066 167.463C97.8455 166.402 98.5893 165.495 99.5439 164.856C100.498 164.218 101.621 163.878 102.769 163.878C104.306 163.879 105.779 164.489 106.867 165.574C107.955 166.66 108.568 168.132 108.572 169.669V169.669Z" stroke="#263238" stroke-width="0.449492" stroke-linecap="round" stroke-linejoin="round"/>
<path id="Vector_153" d="M102.769 166.39L101.059 168.084V166.932H100.517V168.622L99.5887 169.542H100.403V172.34H105.135V169.542H105.95L102.769 166.39Z" fill="white" stroke="#263238" stroke-width="0.449492" stroke-linecap="round" stroke-linejoin="round"/>
<path id="Vector_154" d="M103.132 159.194C103.132 159.194 105.575 154.511 99.719 150.439C93.8629 146.366 92.5923 142.147 93.533 138.963" stroke="#263238" stroke-width="1.34847" stroke-linecap="round" stroke-linejoin="round"/>
<path id="Vector_155" d="M102.162 152.699C102.162 152.699 101.478 149.649 106.833 147.498C112.189 145.348 112.987 138.946 112.987 138.946" stroke="#263238" stroke-width="1.34847" stroke-linecap="round" stroke-linejoin="round"/>
<path id="Vector_156" d="M96.514 133.848C97.3733 133.848 97.2226 139.24 93.2561 140.258C93.2561 140.258 91.3258 139.651 91.0204 137.053C90.9032 136.351 90.9823 135.63 91.2489 134.971C91.5156 134.311 91.9593 133.738 92.5312 133.314C92.7784 134.162 93.1157 134.981 93.5371 135.758C93.5371 135.758 94.8851 133.856 96.514 133.848Z" fill="#D4E6FC" stroke="#263238" stroke-width="0.449492" stroke-linecap="round" stroke-linejoin="round"/>
<g id="Vector_157">
<path d="M93.5332 135.754C93.5332 135.754 92.4373 136.666 93.2317 138.324L93.5332 135.754Z" fill="#D4E6FC"/>
<path d="M93.5332 135.754C93.5332 135.754 92.4373 136.666 93.2317 138.324" stroke="#263238" stroke-width="0.449492" stroke-linecap="round" stroke-linejoin="round"/>
</g>
<path id="Vector_158" d="M112.71 140.258C112.71 140.258 109.859 137.664 110.714 135.754C111.294 134.557 112.24 133.577 113.414 132.956C113.414 132.956 114.025 134.141 114.38 134.707L115.842 133.848C115.842 133.848 118.831 139.647 112.71 140.258Z" fill="#D4E6FC" stroke="#263238" stroke-width="0.449492" stroke-linecap="round" stroke-linejoin="round"/>
<g id="Vector_159">
<path d="M114.38 134.707C114.38 134.707 116.163 137.558 113.923 138.963L114.38 134.707Z" fill="#D4E6FC"/>
<path d="M114.38 134.707C114.38 134.707 116.163 137.558 113.923 138.963" stroke="#263238" stroke-width="0.449492" stroke-linecap="round" stroke-linejoin="round"/>
</g>
<path id="Vector_160" d="M104.056 149.05C104.056 149.05 101.299 142.127 103.584 134.365" stroke="#263238" stroke-width="1.34847" stroke-linecap="round" stroke-linejoin="round"/>
<path id="Vector_161" d="M103.714 134.41C103.714 134.41 107.379 133.233 107.379 131.152C107.35 129.824 106.898 128.54 106.088 127.487C106.088 127.487 105.038 128.301 104.48 128.68L103.506 127.291C103.506 127.291 98.3996 131.298 103.714 134.41Z" fill="#D4E6FC" stroke="#263238" stroke-width="0.449492" stroke-linecap="round" stroke-linejoin="round"/>
<g id="Vector_162">
<path d="M104.496 128.668C104.496 128.668 101.69 130.529 103.148 132.74L104.496 128.668Z" fill="#D4E6FC"/>
<path d="M104.496 128.668C104.496 128.668 101.69 130.529 103.148 132.74" stroke="#263238" stroke-width="0.449492" stroke-linecap="round" stroke-linejoin="round"/>
</g>
<path id="Vector_163" d="M152.249 157.183H133.109C133.109 157.183 135.686 176.632 136.436 182.26C136.57 183.283 137.385 183.788 138.37 183.788H164.906C165.891 183.788 166.706 183.283 166.84 182.26C167.59 176.632 170.167 157.183 170.167 157.183H152.249Z" fill="#263238"/>
<path id="Vector_164" d="M132.4 155.554H170.876C171.117 155.554 171.348 155.649 171.518 155.82C171.688 155.99 171.784 156.221 171.784 156.462V157.899C171.784 158.14 171.688 158.371 171.518 158.541C171.348 158.712 171.117 158.807 170.876 158.807H132.4C132.158 158.807 131.926 158.711 131.755 158.54C131.584 158.369 131.488 158.137 131.488 157.895V156.458C131.488 156.338 131.512 156.22 131.558 156.11C131.605 156 131.672 155.901 131.757 155.817C131.841 155.733 131.942 155.666 132.052 155.621C132.162 155.576 132.281 155.553 132.4 155.554Z" fill="#263238"/>
<path id="Vector_165" d="M135.149 158.812H154.562" stroke="white" stroke-width="0.449492" stroke-linecap="round" stroke-linejoin="round"/>
<path id="Vector_166" d="M157.005 158.812H158.5" stroke="white" stroke-width="0.449492" stroke-linecap="round" stroke-linejoin="round"/>
<path id="Vector_167" d="M167.46 158.812H164.743" stroke="white" stroke-width="0.449492" stroke-linecap="round" stroke-linejoin="round"/>
<path id="Vector_168" d="M136.643 165.189H144.247" stroke="white" stroke-width="0.449492" stroke-linecap="round" stroke-linejoin="round"/>
<path id="Vector_169" d="M148.588 165.189H150.625" stroke="white" stroke-width="0.449492" stroke-linecap="round" stroke-linejoin="round"/>
<path id="Vector_170" d="M166.913 165.189H159.583" stroke="white" stroke-width="0.449492" stroke-linecap="round" stroke-linejoin="round"/>
<path id="Vector_171" d="M166.1 170.483H164.743" stroke="white" stroke-width="0.449492" stroke-linecap="round" stroke-linejoin="round"/>
<path id="Vector_172" d="M144.247 170.483H141.396" stroke="white" stroke-width="0.449492" stroke-linecap="round" stroke-linejoin="round"/>
<path id="Vector_173" d="M157.751 175.643H162.434" stroke="white" stroke-width="0.449492" stroke-linecap="round" stroke-linejoin="round"/>
<path id="Vector_174" d="M146.824 175.643H139.494" stroke="white" stroke-width="0.449492" stroke-linecap="round" stroke-linejoin="round"/>
<path id="Vector_175" d="M138 180.257H140.444" stroke="white" stroke-width="0.449492" stroke-linecap="round" stroke-linejoin="round"/>
<path id="Vector_176" d="M144.247 180.257H158.5" stroke="white" stroke-width="0.449492" stroke-linecap="round" stroke-linejoin="round"/>
<path id="Vector_177" d="M165.424 180.257H163.248" stroke="white" stroke-width="0.449492" stroke-linecap="round" stroke-linejoin="round"/>
<path id="Vector_178" d="M158.63 169.668C158.631 171.052 158.222 172.404 157.454 173.554C156.686 174.705 155.594 175.602 154.317 176.131C153.039 176.661 151.633 176.8 150.276 176.531C148.92 176.262 147.673 175.596 146.695 174.618C145.717 173.641 145.05 172.395 144.78 171.038C144.51 169.682 144.648 168.276 145.177 166.998C145.707 165.72 146.603 164.627 147.753 163.859C148.903 163.09 150.255 162.68 151.638 162.68C153.492 162.68 155.27 163.416 156.581 164.727C157.892 166.037 158.629 167.815 158.63 169.668Z" fill="#D4E6FC" stroke="#263238" stroke-width="0.449492" stroke-linecap="round" stroke-linejoin="round"/>
<g id="Vector_179">
<path d="M154.309 168.903V171.346C154.309 171.346 153.796 172.202 151.638 172.202C149.48 172.202 148.966 171.346 148.966 171.346V168.903" fill="white"/>
<path d="M154.309 168.903V171.346C154.309 171.346 153.796 172.202 151.638 172.202C149.48 172.202 148.966 171.346 148.966 171.346V168.903" stroke="#263238" stroke-width="0.449492" stroke-linecap="round" stroke-linejoin="round"/>
</g>
<path id="Vector_180" d="M151.638 167.14L155.344 168.516L151.638 169.893L147.932 168.516L151.638 167.14Z" fill="white" stroke="#263238" stroke-width="0.449492" stroke-linecap="round" stroke-linejoin="round"/>
<path id="Vector_181" d="M151.638 168.516L153.19 169.318V173.012" stroke="#263238" stroke-width="0.449492" stroke-linecap="round" stroke-linejoin="round"/>
<path id="Vector_182" d="M157.441 169.669C157.444 170.817 157.105 171.94 156.469 172.896C155.833 173.852 154.927 174.598 153.867 175.039C152.807 175.48 151.64 175.596 150.513 175.374C149.387 175.151 148.352 174.6 147.539 173.789C146.726 172.977 146.172 171.943 145.947 170.817C145.722 169.691 145.836 168.524 146.275 167.463C146.714 166.402 147.458 165.495 148.413 164.856C149.367 164.218 150.49 163.878 151.638 163.878C153.175 163.879 154.648 164.489 155.736 165.574C156.824 166.66 157.437 168.132 157.441 169.669V169.669Z" stroke="#263238" stroke-width="0.449492" stroke-linecap="round" stroke-linejoin="round"/>
<path id="Vector_183" d="M151.638 160.754C151.638 160.754 149.785 156.006 151.638 149.897" stroke="#263238" stroke-width="1.34847" stroke-linecap="round" stroke-linejoin="round"/>
<path id="Vector_184" d="M151.638 144.737C151.638 144.737 157.441 148.675 150.823 152.609C150.823 152.609 144.247 148.675 151.638 144.737Z" fill="#D4E6FC" stroke="#263238" stroke-width="0.449492" stroke-linecap="round" stroke-linejoin="round"/>
<path id="Vector_185" d="M151.638 144.737C151.638 144.737 152.636 146.232 151.638 147.588C151.343 148.037 151.14 148.539 151.04 149.067C150.94 149.595 150.945 150.137 151.056 150.663" stroke="#263238" stroke-width="0.449492" stroke-linecap="round" stroke-linejoin="round"/>
</g>
</g>
</svg>
