<svg preserveAspectRatio="xMidYMid meet" viewBox="0 0 540 523" fill="none" xmlns="http://www.w3.org/2000/svg">
<path d="M-1.12371 372.118C-1.12371 372.118 306.177 70.8526 339.023 55.5507C390.41 31.6115 433.098 75.5525 484.123 50.8488C509.708 38.462 541.832 6.42991 541.832 6.42991" stroke="#F2F5FE" stroke-width="0.449492"/>
<path d="M-0.674209 422.91C-0.674209 422.91 316.23 108.372 349.076 93.0705C400.463 69.1313 443.151 113.072 494.177 88.3686C519.761 75.9819 551.885 43.9497 551.885 43.9497" stroke="#F2F5FE" stroke-width="0.449492"/>
<path d="M-1.12372 471.006C-1.12372 471.006 326.74 147.598 359.587 132.296C410.974 108.356 453.662 152.297 504.687 127.594C530.272 115.207 562.395 83.1748 562.395 83.1748" stroke="#F2F5FE" stroke-width="0.449492"/>
<path d="M-0.224663 522.474C-0.224663 522.474 337.208 186.662 370.09 171.495C421.534 147.767 463.914 190.559 515.001 166.084C540.616 153.812 572.87 122.266 572.87 122.266" stroke="#F2F5FE" stroke-width="0.449492"/>
<circle cx="338.167" cy="99.8683" r="5.15822" fill="#003C71"/>
<circle cx="439.858" cy="132.291" r="5.15822" fill="#003C71" fill-opacity="0.7"/>
<circle cx="519.442" cy="164.715" r="2.94756" fill="#003C71"/>
<circle cx="415.54" cy="54.9179" r="2.94756" fill="#C3D1E2"/>
<circle cx="311.639" cy="167.662" r="2.94756" fill="#003C71"/>
<circle cx="502.493" cy="37.9694" r="5.15822" fill="#003C71"/>
</svg>
